<svg width="119" height="32" viewBox="0 0 119 32" fill="none" xmlns="http://www.w3.org/2000/svg">
<path d="M118.839 15.6528L104.496 0.230827H98.7903L113.133 15.4985L97.865 32H104.034L118.839 15.6528Z" fill="#3D6BD0"/>
<path d="M38.9008 0.0604172H34.6924V31.4413H38.9008V0.0604172Z" fill="#231F20"/>
<path d="M92.2898 0.0604172H81.6236H77.4152H66.7705V4.29071H77.4152V31.4413H81.6236V4.29071H92.2898V0.0604172Z" fill="#231F20"/>
<path d="M21.0853 0.0606155V13.6371H4.20841V0.0606155H0V31.4415H4.20841V17.8674H21.0853V31.4415H25.2937V0.0606155H21.0853Z" fill="#231F20"/>
<path d="M60.5236 31.6828L47.171 15.6883L60.2163 0.0606155H54.7235L41.6758 15.6907L44.4198 18.9751L55.0284 31.6828H60.5236Z" fill="#231F20"/>
<path d="M60.651 31.7429H54.9997L54.9829 31.7212L41.5967 15.6905L41.6303 15.6518L54.6948 0H60.3461L47.2503 15.688L60.6534 31.7429H60.651ZM55.0573 31.6222H60.3941L47.0919 15.688L60.0892 0.120659H54.7525L41.7551 15.6905L44.4679 18.9338L55.0598 31.6222H55.0573Z" fill="#231F20"/>
</svg>
