<svg xmlns="http://www.w3.org/2000/svg" viewBox="45 82 500 123" role="img" aria-labelledby="title">
  <title id="title">NKT PRO</title>
  <defs>
    <style>.cls-1{fill:url(#linear-gradient)}.cls-2{fill:#fff}</style>
    <linearGradient id="linear-gradient" x1="52.22" y1="143.55" x2="536.87" y2="143.55" gradientUnits="userSpaceOnUse">
      <stop offset="0" stop-color="#263955"/><stop offset=".16" stop-color="#2b6899"/><stop offset=".17" stop-color="#2d6d9d"/><stop offset=".28" stop-color="#3f9aba"/><stop offset=".33" stop-color="#46abc6"/><stop offset=".37" stop-color="#50afc7"/><stop offset=".5" stop-color="#71becc"/><stop offset=".63" stop-color="#51afc7"/><stop offset=".67" stop-color="#46abc6"/><stop offset=".84" stop-color="#2b6899"/><stop offset="1" stop-color="#0e2c4a"/>
    </linearGradient>
  </defs>
  <polygon class="cls-1" points="491.6 198.45 52.22 198.45 52.22 88.65 491.6 88.65 536.87 143.55 491.6 198.45"/>
  <path class="cls-2" d="M479.66,143.31c0,20.04-13.65,33.25-33.34,33.25s-33.34-13.21-33.34-33.25,13.56-33.25,33.34-33.25,33.34,13.21,33.34,33.25ZM429.03,143.31c0,13.65,7.89,20.75,17.29,20.75s17.29-7.09,17.29-20.75-7.89-20.75-17.29-20.75-17.29,7.09-17.29,20.75Z"/>
  <path class="cls-2" d="M378.86,123.89h-10.02v14.54h10.02c7.18,0,12.68-1.24,12.68-7.27s-5.5-7.27-12.68-7.27ZM393.05,175.4l-13.92-24.2h-10.28v24.2h-15.16v-64.28h24.74c16.67,0,29.17,3.9,29.17,19.86,0,9.49-5.23,14.89-12.59,17.73l15.87,26.69h-17.82Z"/>
  <path class="cls-2" d="M318.86,123.89h-10.02v16.49h10.02c7.09,0,12.68-1.51,12.68-8.33s-5.59-8.16-12.68-8.16ZM293.68,111.13h24.74c16.67,0,29.17,4.08,29.17,20.92s-12.5,21.1-29.17,21.1h-9.58v22.25h-15.16v-64.28Z"/>
  <polygon class="cls-2" points="234.56 175.4 234.56 124.42 213.99 124.42 213.99 111.13 270.47 111.13 270.47 124.42 249.81 124.42 249.81 175.4 234.56 175.4"/>
  <polygon class="cls-2" points="171.35 111.13 171.35 136.57 194.67 111.13 213.2 111.13 189.44 136.75 214.44 175.4 196.18 175.4 178.8 148.27 171.35 156.43 171.35 175.4 156.19 175.4 156.19 111.13 171.35 111.13"/>
  <polygon class="cls-2" points="144.59 175.4 126.14 175.4 100.34 131.07 100.34 175.4 85.72 175.4 85.72 111.13 104.16 111.13 129.96 155.46 129.96 111.13 144.59 111.13 144.59 175.4"/>
</svg>
