<svg width="19" height="18" viewBox="0 0 19 18" fill="none" xmlns="http://www.w3.org/2000/svg">
<path d="M1 1H3.94447L5.91726 10.8566C5.98458 11.1955 6.16895 11.4999 6.4381 11.7166C6.70725 11.9333 7.04404 12.0484 7.3895 12.0418H14.5446C14.89 12.0484 15.2268 11.9333 15.496 11.7166C15.7651 11.4999 15.9495 11.1955 16.0168 10.8566L17.1946 4.68059H4.68059M7.62506 15.7223C7.62506 16.1289 7.29549 16.4585 6.88894 16.4585C6.48239 16.4585 6.15282 16.1289 6.15282 15.7223C6.15282 15.3158 6.48239 14.9862 6.88894 14.9862C7.29549 14.9862 7.62506 15.3158 7.62506 15.7223ZM15.7223 15.7223C15.7223 16.1289 15.3928 16.4585 14.9862 16.4585C14.5797 16.4585 14.2501 16.1289 14.2501 15.7223C14.2501 15.3158 14.5797 14.9862 14.9862 14.9862C15.3928 14.9862 15.7223 15.3158 15.7223 15.7223Z" stroke="#1E1E1E" stroke-width="2" stroke-linecap="round" stroke-linejoin="round"/>
</svg>
