<svg width="19" height="19" viewBox="0 0 19 19" fill="none" xmlns="http://www.w3.org/2000/svg">
<mask id="path-1-inside-1_1894_1469" fill="white">
<path d="M17.4785 15.223H14.0586V14.223H16.4785V2.40564H4.66113V5.17224H3.66113V1.40466H17.4785V15.223Z"/>
</mask>
<path d="M17.4785 15.223V16.223H18.4785V15.223H17.4785ZM14.0586 15.223H13.0586V16.223H14.0586V15.223ZM14.0586 14.223V13.223H13.0586V14.223H14.0586ZM16.4785 14.223V15.223H17.4785V14.223H16.4785ZM16.4785 2.40564H17.4785V1.40564H16.4785V2.40564ZM4.66113 2.40564V1.40564H3.66113V2.40564H4.66113ZM4.66113 5.17224V6.17224H5.66113V5.17224H4.66113ZM3.66113 5.17224H2.66113V6.17224H3.66113V5.17224ZM3.66113 1.40466V0.404663H2.66113V1.40466H3.66113ZM17.4785 1.40466H18.4785V0.404663H17.4785V1.40466ZM17.4785 15.223V14.223H14.0586V15.223V16.223H17.4785V15.223ZM14.0586 15.223H15.0586V14.223H14.0586H13.0586V15.223H14.0586ZM14.0586 14.223V15.223H16.4785V14.223V13.223H14.0586V14.223ZM16.4785 14.223H17.4785V2.40564H16.4785H15.4785V14.223H16.4785ZM16.4785 2.40564V1.40564H4.66113V2.40564V3.40564H16.4785V2.40564ZM4.66113 2.40564H3.66113V5.17224H4.66113H5.66113V2.40564H4.66113ZM4.66113 5.17224V4.17224H3.66113V5.17224V6.17224H4.66113V5.17224ZM3.66113 5.17224H4.66113V1.40466H3.66113H2.66113V5.17224H3.66113ZM3.66113 1.40466V2.40466H17.4785V1.40466V0.404663H3.66113V1.40466ZM17.4785 1.40466H16.4785V15.223H17.4785H18.4785V1.40466H17.4785Z" fill="#3D6BD0" mask="url(#path-1-inside-1_1894_1469)"/>
<rect x="1.90234" y="5.20068" width="11.8173" height="11.8173" stroke="#3D6BD0"/>
</svg>
